<?xml version="1.0" encoding="UTF-8" standalone="no" ?>
<!DOCTYPE svg PUBLIC "-//W3C//DTD SVG 1.1//EN" "http://www.w3.org/Graphics/SVG/1.1/DTD/svg11.dtd">
<svg xmlns="http://www.w3.org/2000/svg" xmlns:xlink="http://www.w3.org/1999/xlink" version="1.1" width="1024" height="1024" viewBox="0 0 1024 1024" xml:space="preserve">
<desc>Created with Fabric.js 3.6.6</desc>
<defs>
</defs>
<g transform="matrix(1 0 0 1 699 451)"  >
<path style="stroke: rgb(100,121,138); stroke-width: 16; stroke-dasharray: 25 25; stroke-linecap: round; stroke-dashoffset: 0; stroke-linejoin: round; stroke-miterlimit: 4; fill: none; fill-rule: nonzero; opacity: 1;" vector-effect="non-scaling-stroke"  transform=" translate(-691, -443)" d="M 536 352 Q 746 366 794 440 Q 838 498 842 516 L 846 534" stroke-linecap="round" />
</g>
<g transform="matrix(0.08 0 0 -0.08 529 240.04)"  >
<path style="stroke: none; stroke-width: 1; stroke-dasharray: none; stroke-linecap: butt; stroke-dashoffset: 0; stroke-linejoin: miter; stroke-miterlimit: 4; fill: rgb(220,135,68); fill-rule: nonzero; opacity: 1;"  transform=" translate(-991.5, -1976.94)" d="M 817 3495 c -298 -57 -567 -257 -702 -525 c -74 -146 -106 -280 -106 -445 c 0 -258 84 -472 268 -679 c 197 -224 263 -321 373 -549 c 95 -199 154 -347 231 -582 c 59 -180 59 -180 110 -224 l 51 -44 l 31 31 l 31 31 l -24 26 l -24 26 l 43 132 c 131 404 285 740 429 934 c 32 43 102 127 154 186 c 112 125 154 185 208 299 c 67 139 84 227 84 413 c 0 132 -4 173 -22 238 c -27 98 -87 226 -147 317 c -51 75 -181 206 -258 259 c -72 49 -221 117 -312 141 c -106 28 -308 36 -418 15 z m 347 -325 c 229 -58 419 -247 482 -480 c 24 -87 24 -253 0 -338 c -35 -131 -100 -237 -201 -330 c -285 -261 -735 -223 -979 82 c -99 124 -141 247 -141 416 c 0 197 58 335 199 475 c 92 92 182 144 298 175 c 100 26 241 26 342 0 z" stroke-linecap="round" />
</g>
<g transform="matrix(1.45 -1.37 1.37 1.45 583.02 852.65)"  >
<path style="stroke: rgb(100,121,138); stroke-width: 16; stroke-dasharray: 25 25; stroke-linecap: round; stroke-dashoffset: 0; stroke-linejoin: round; stroke-miterlimit: 4; fill: rgb(0,0,0); fill-opacity: 0; fill-rule: nonzero; opacity: 1;"  transform=" translate(-691, -443)" d="M 536 352 Q 746 366 794 440 Q 838 498 842 516 L 846 534" stroke-linecap="round" />
</g>
<g transform="matrix(0.21 0 0 -0.2 217.58 640.8)"  >
<path style="stroke: none; stroke-width: 1; stroke-dasharray: none; stroke-linecap: butt; stroke-dashoffset: 0; stroke-linejoin: miter; stroke-miterlimit: 4; fill: rgb(229,99,83); fill-rule: nonzero; opacity: 1;"  transform=" translate(-991.5, -1976.94)" d="M 817 3495 c -298 -57 -567 -257 -702 -525 c -74 -146 -106 -280 -106 -445 c 0 -258 84 -472 268 -679 c 197 -224 263 -321 373 -549 c 95 -199 154 -347 231 -582 c 59 -180 59 -180 110 -224 l 51 -44 l 31 31 l 31 31 l -24 26 l -24 26 l 43 132 c 131 404 285 740 429 934 c 32 43 102 127 154 186 c 112 125 154 185 208 299 c 67 139 84 227 84 413 c 0 132 -4 173 -22 238 c -27 98 -87 226 -147 317 c -51 75 -181 206 -258 259 c -72 49 -221 117 -312 141 c -106 28 -308 36 -418 15 z m 347 -325 c 229 -58 419 -247 482 -480 c 24 -87 24 -253 0 -338 c -35 -131 -100 -237 -201 -330 c -285 -261 -735 -223 -979 82 c -99 124 -141 247 -141 416 c 0 197 58 335 199 475 c 92 92 182 144 298 175 c 100 26 241 26 342 0 z" stroke-linecap="round" />
</g>
<g transform="matrix(0.1 0 0 -0.1 915 624.09)"  >
<path style="stroke: none; stroke-width: 1; stroke-dasharray: none; stroke-linecap: butt; stroke-dashoffset: 0; stroke-linejoin: miter; stroke-miterlimit: 4; fill: rgb(39,162,219); fill-rule: nonzero; opacity: 1;"  transform=" translate(-991.5, -1976.94)" d="M 817 3495 c -298 -57 -567 -257 -702 -525 c -74 -146 -106 -280 -106 -445 c 0 -258 84 -472 268 -679 c 197 -224 263 -321 373 -549 c 95 -199 154 -347 231 -582 c 59 -180 59 -180 110 -224 l 51 -44 l 31 31 l 31 31 l -24 26 l -24 26 l 43 132 c 131 404 285 740 429 934 c 32 43 102 127 154 186 c 112 125 154 185 208 299 c 67 139 84 227 84 413 c 0 132 -4 173 -22 238 c -27 98 -87 226 -147 317 c -51 75 -181 206 -258 259 c -72 49 -221 117 -312 141 c -106 28 -308 36 -418 15 z m 347 -325 c 229 -58 419 -247 482 -480 c 24 -87 24 -253 0 -338 c -35 -131 -100 -237 -201 -330 c -285 -261 -735 -223 -979 82 c -99 124 -141 247 -141 416 c 0 197 58 335 199 475 c 92 92 182 144 298 175 c 100 26 241 26 342 0 z" stroke-linecap="round" />
</g>
</svg>