<?xml version="1.0" standalone="no"?>
<!DOCTYPE svg PUBLIC "-//W3C//DTD SVG 20010904//EN"
 "http://www.w3.org/TR/2001/REC-SVG-20010904/DTD/svg10.dtd">
<svg version="1.0" xmlns="http://www.w3.org/2000/svg"
 width="1024.000000pt" height="1024.000000pt" viewBox="0 0 1024.000000 1024.000000"
 preserveAspectRatio="xMidYMid meet">

<g transform="translate(0.000000,1024.000000) scale(0.100000,-0.100000)">
<path d="M0 5120 l0 -5120 5120 0 5120 0 0 5120 0 5120 -5120 0 -5120 0 0
-5120z m3215 4711 c72 -11 198 -32 280 -46 83 -14 263 -41 400 -61 311 -44
505 -84 658 -135 201 -67 321 -135 443 -251 124 -118 195 -238 235 -398 18
-72 21 -103 16 -224 -11 -333 -107 -544 -832 -1831 -133 -236 -263 -469 -288
-516 -57 -105 -104 -153 -174 -179 -132 -49 -299 4 -354 112 -35 69 -30 120
39 338 33 107 99 326 146 485 95 323 171 565 210 669 14 37 26 70 26 72 0 13
-228 -126 -360 -220 -227 -160 -529 -446 -706 -667 -714 -891 -933 -2068 -588
-3159 140 -440 433 -933 767 -1286 637 -675 1530 -1053 2472 -1047 566 4 1041
113 1550 357 536 258 1006 654 1360 1151 365 512 596 1103 679 1738 14 103 31
344 39 541 2 66 22 90 55 70 32 -20 78 -313 91 -584 47 -961 -300 -1962 -948
-2735 -97 -116 -340 -359 -456 -456 -245 -206 -567 -416 -850 -554 -949 -465
-2002 -557 -3031 -266 -904 256 -1687 794 -2268 1560 -485 638 -763 1340 -858
2166 -20 171 -17 714 5 897 65 544 209 1032 445 1503 92 185 140 267 268 460
394 594 926 1074 1548 1396 143 74 148 78 115 83 -706 114 -963 206 -1168 415
-170 173 -195 298 -83 403 99 92 260 168 444 208 82 17 120 19 318 16 161 -3
262 -10 355 -25z m4645 -266 c534 -65 1039 -354 1362 -778 622 -817 537 -1966
-198 -2677 -307 -296 -661 -473 -1104 -552 -119 -21 -510 -17 -635 6 -718 132
-1286 593 -1549 1256 -93 236 -136 466 -136 739 0 259 37 470 125 707 323 869
1215 1412 2135 1299z"/>
<path d="M7410 8835 c-218 -37 -399 -115 -579 -248 -141 -104 -309 -312 -382
-473 -90 -197 -122 -348 -122 -564 1 -223 46 -405 149 -600 174 -328 492 -572
850 -653 379 -86 775 1 1084 238 76 59 200 187 259 268 110 151 196 363 227
560 22 135 15 346 -15 477 -138 600 -661 1014 -1276 1009 -66 -1 -154 -7 -195
-14z"/>
</g>
</svg>
