<?xml version="1.0" encoding="UTF-8" standalone="no"?>
<svg
   version="1.0"
   width="868.2793pt"
   height="927.45392pt"
   viewBox="0 0 868.27929 927.45392"
   preserveAspectRatio="xMidYMid"
   id="svg2"
   xmlns="http://www.w3.org/2000/svg"
   xmlns:svg="http://www.w3.org/2000/svg">
  <defs
     id="defs2" />
  <g
     id="g6"
     transform="translate(-95.460353,-38.283789)">
    <path
       d="m 760.5,139.1001 c -6.6,0.1 -15.4,0.70039 -19.5,1.40039 -21.8,3.7 -39.89941,11.4998 -57.89941,24.7998 -14.1,10.4 -30.9002,31.19981 -38.2002,47.29981 -9,19.7 -12.20068,34.79941 -12.20068,56.39941 0.1,22.3 4.60039,40.5 14.90039,60 17.4,32.8 49.20049,57.19981 85.00049,65.29981 37.9,8.6 77.4999,-0.0993 108.3999,-23.79932 7.6,-5.9 19.9999,-18.69932 25.8999,-26.79932 11,-15.1 19.59922,-36.30097 22.69922,-56.00097 2.2,-13.5 1.5,-34.59971 -1.5,-47.69971 C 874.29961,180 822,138.6001 760.5,139.1001 Z"
       id="path6"
       style="display:none;mix-blend-mode:lighten" />
    <path
       d="m 768.79541,66.14209 c -85.72375,-3.0271 -166.01367,49.78857 -196.29492,131.25732 -8.8,23.7 -12.50098,44.80069 -12.50098,70.70069 0,27.3 4.30108,50.2999 13.60108,73.8999 26.3,66.3 83.0999,112.4001 154.8999,125.6001 12.5,2.3 51.59951,2.70058 63.49951,0.60058 44.3,-7.9 79.69941,-25.60117 110.39941,-55.20117 73.5,-71.1 82.0003,-186.00019 19.8003,-267.70019 C 889.89971,102.89932 839.4,74 786,67.5 780.25,66.79375 774.51033,66.343896 768.79541,66.14209 Z M 760.5,139.1001 C 822,138.6001 874.29961,180 888.09961,240 c 3,13.1 3.7,34.19971 1.5,47.69971 -3.1,19.7 -11.69922,40.90097 -22.69922,56.00097 -5.9,8.1 -18.2999,20.89932 -25.8999,26.79932 -30.9,23.7 -70.4999,32.39932 -108.3999,23.79932 -35.8,-8.1 -67.60049,-32.49981 -85.00049,-65.29981 -10.3,-19.5 -14.80039,-37.7 -14.90039,-60 0,-21.6 3.20068,-36.69941 12.20068,-56.39941 7.3,-16.1 24.1002,-36.89981 38.2002,-47.29981 18,-13.3 36.09941,-21.0998 57.89941,-24.7998 4.1,-0.7 12.9,-1.30039 19.5,-1.40039 z"
       id="path5" />
  </g>
  <path
     d="m 190.54014,0.11562472 c -19.8,-0.3 -23.60029,-0.09893 -31.80029,1.60107398 -18.4,4 -34.50088,11.5993173 -44.40088,20.7993173 -11.2,10.5 -8.69873,23.000781 8.30127,40.300785 20.5,20.9 46.19931,30.09902 116.79931,41.499019 3.3,0.5 2.79951,0.8998 -11.50049,8.2998 -62.2,32.2 -115.39882,80.20108 -154.798823,139.60108 -12.8,19.3 -17.60079,27.49902 -26.80079,45.99902 -23.6,47.1 -38.0004794,95.90029 -44.5004834,150.30029 -2.19999992,18.3 -2.49951092,72.59971 -0.499511,89.69971 9.4999944,82.6 37.3002944,152.80059 85.8002944,216.60059 58.100003,76.6 136.400293,130.4 226.800293,156 102.9,29.1 208.19961,19.8999 303.09961,-26.6001 28.3,-13.8 60.50049,-34.80039 85.00049,-55.40039 11.6,-9.7 35.89912,-33.99912 45.59912,-45.59912 64.8,-77.3 99.50029,-177.40098 94.80029,-273.50098 -1.3,-27.1 -5.89961,-56.39892 -9.09961,-58.39892 -3.3,-2 -5.30049,0.39902 -5.50049,6.99902 -0.8,19.7 -2.49941,43.80107 -3.89941,54.10107 -8.3,63.5 -31.3999,122.59932 -67.8999,173.79932 -35.4,49.7 -82.40049,89.3001 -136.00049,115.1001 -50.9,24.4 -98.39951,35.2997 -154.99951,35.6997 -94.2,0.6 -183.50117,-37.1997 -247.20117,-104.6997 -33.4,-35.3 -62.69922,-84.6001 -76.69922,-128.6001 -34.5,-109.1 -12.59971,-226.79941 58.80029,-315.89941 17.7,-22.1 47.89961,-50.7002 70.59961,-66.7002 13.2,-9.4 36,-23.30049 36,-22.00049 0,0.2 -1.2001,3.49971 -2.6001,7.19971 -3.9,10.4 -11.5,34.60088 -21,66.90088 -4.7,15.9 -11.3001,37.79951 -14.6001,48.49951 -6.9,21.8 -7.39941,26.8998 -3.89941,33.7998 5.5,10.8 22.19941,16.1002 35.39941,11.2002 7,-2.6 11.70088,-7.40039 17.40088,-17.90039 2.5,-4.7 15.49883,-27.99912 28.79883,-51.59912 72.5,-128.7 82.1002,-149.80108 83.2002,-183.10108 0.5,-12.1 0.20039,-15.198919 -1.59961,-22.398919 -4,-16 -11.10049,-27.99981 -23.50049,-39.799806 -12.2,-11.6 -24.19981,-18.400098 -44.29981,-25.100098 -15.3,-5.1 -34.69931,-9.1 -65.79931,-13.5 -13.7,-2 -31.70049,-4.7010743 -40.00049,-6.1010743 -8.2,-1.4 -20.80049,-3.49961 -28.00049,-4.59961 -9.3,-1.5 -19.39902,-2.20048798 -35.49902,-2.50048798 z"
     id="path4"
     style="display:inline" />
</svg>
